<?xml version="1.0" encoding="utf-8"?>
<!-- Generator: Adobe Illustrator 23.1.1, SVG Export Plug-In . SVG Version: 6.00 Build 0)  -->
<svg version="1.1" id="Calque_1" xmlns="http://www.w3.org/2000/svg" xmlns:xlink="http://www.w3.org/1999/xlink" x="0px" y="0px"
	 viewBox="0 0 100 1100" style="enable-background:new 0 0 100 1100;" xml:space="preserve">
<style type="text/css">
	.st0{fill:#FFFFFF;stroke:#000000;stroke-width:5;stroke-linecap:round;stroke-linejoin:round;stroke-miterlimit:10;}
	.st1{fill:#FFFFFF;stroke:#000000;stroke-width:5;stroke-linecap:round;stroke-linejoin:round;stroke-miterlimit:9.9999;}
	.st2{fill:none;stroke:#000000;stroke-width:5;stroke-linecap:round;stroke-linejoin:round;stroke-miterlimit:10;}
	.st3{fill:none;}
</style>
<rect x="32.5" y="321.5" class="st0" width="35" height="19"/>
<rect x="21.5" y="336.5" class="st0" width="57" height="27"/>
<rect x="32.5" y="359.5" class="st0" width="35" height="19"/>
<rect x="14.5" y="228.5" class="st0" width="57" height="40"/>
<polygon class="st0" points="91.5,268.3 71.7,248.5 91.5,228.7 "/>
<rect x="19.7" y="136.8" transform="matrix(0.7071 -0.7071 0.7071 0.7071 -88.1985 79.604)" class="st1" width="64.6" height="19"/>
<polyline class="st2" points="35.8,175.8 20.7,177.5 22.4,162.4 "/>
<line class="st2" x1="60.9" y1="124" x2="74.3" y2="137.4"/>
<polyline class="st0" points="21.5,38.2 21.5,19.2 78.5,19.2 78.5,38.2 "/>
<line class="st2" x1="50" y1="19.2" x2="50" y2="74.5"/>
<line class="st2" x1="67.5" y1="74.5" x2="32.5" y2="74.5"/>
<rect y="500" class="st3" width="100" height="100"/>
<rect y="600" class="st3" width="100" height="100"/>
<rect y="400" class="st3" width="100" height="100"/>
<g>
	<line class="st2" x1="27.5" y1="527.5" x2="72.5" y2="572.5"/>
	<line class="st2" x1="72.5" y1="527.5" x2="27.5" y2="572.5"/>
</g>
<g>
	<polyline class="st2" points="76.2,432.1 40.3,467.9 23.8,451.5 	"/>
</g>
<g>
	<g>
		<path class="st0" d="M83.8,650C76.4,636.4,64,627.5,50,627.5s-26.4,8.9-33.8,22.5"/>
		<path class="st0" d="M16.2,650c7.4,13.6,19.8,22.5,33.8,22.5s26.4-8.9,33.8-22.5"/>
	</g>
	<circle class="st0" cx="50" cy="650" r="8.9"/>
</g>
<rect y="700" class="st3" width="100" height="100"/>
<rect x="13.3" y="722.6" class="st0" width="73.3" height="54.8"/>
<line class="st2" x1="50" y1="722.6" x2="50" y2="777.4"/>
<g>
	<path d="M38.1,755.1c0,0.7-0.1,1.3-0.4,1.9s-0.6,1.1-1.1,1.6c-0.5,0.5-1,0.8-1.6,1.1c-0.6,0.3-1.2,0.4-1.9,0.4H32
		c-0.7,0-1.3-0.1-1.9-0.4s-1.1-0.6-1.6-1.1c-0.5-0.5-0.8-1-1.1-1.6c-0.3-0.6-0.4-1.2-0.4-1.9v-2c0-0.7,0.1-1.4,0.4-2
		c0.3-0.6,0.7-1.2,1.2-1.6c-0.4-0.4-0.7-0.9-1-1.5c-0.2-0.6-0.3-1.2-0.3-1.8v-2c0-0.7,0.1-1.3,0.4-1.9c0.3-0.6,0.6-1.1,1.1-1.6
		s1-0.8,1.6-1.1c0.6-0.3,1.2-0.4,1.9-0.4h0.6c0.7,0,1.3,0.1,1.9,0.4c0.6,0.3,1.1,0.6,1.6,1.1s0.8,1,1.1,1.6c0.3,0.6,0.4,1.2,0.4,1.9
		v2c0,0.7-0.1,1.3-0.3,1.8s-0.6,1.1-1,1.5c0.5,0.5,0.9,1,1.2,1.6c0.3,0.6,0.4,1.3,0.4,2V755.1z M35.2,753.1c0-0.6-0.2-1-0.6-1.4
		s-0.9-0.6-1.4-0.6H32c-0.6,0-1.1,0.2-1.4,0.6s-0.6,0.9-0.6,1.4v2c0,0.6,0.2,1.1,0.6,1.5c0.4,0.4,0.9,0.6,1.4,0.6h1.2
		c0.6,0,1.1-0.2,1.4-0.6c0.4-0.4,0.6-0.9,0.6-1.5V753.1z M34.9,744c0-0.6-0.2-1-0.6-1.4s-0.9-0.6-1.4-0.6h-0.6
		c-0.6,0-1.1,0.2-1.4,0.6c-0.4,0.4-0.6,0.9-0.6,1.4v2c0,0.6,0.2,1.1,0.6,1.5c0.4,0.4,0.9,0.6,1.4,0.6h0.6c0.6,0,1.1-0.2,1.4-0.6
		c0.4-0.4,0.6-0.9,0.6-1.5V744z"/>
	<path d="M74.9,758.9c0,0.3-0.1,0.5-0.3,0.6c-0.2,0.2-0.4,0.2-0.6,0.2h-9.9c-0.2,0-0.4-0.1-0.6-0.2c-0.2-0.2-0.3-0.4-0.3-0.6v-1.2
		c0-0.3,0.1-0.5,0.3-0.6c0.2-0.2,0.4-0.2,0.6-0.2h3.8v-12.8l-1.5,1.8c-0.1,0.2-0.3,0.3-0.6,0.3c-0.2,0-0.4-0.1-0.6-0.2l-0.9-0.8
		c-0.2-0.1-0.3-0.3-0.3-0.6c0-0.2,0.1-0.4,0.2-0.6l3.7-4.3c0.1-0.1,0.2-0.2,0.3-0.2c0.1-0.1,0.3-0.1,0.3-0.1h1.4
		c0.3,0,0.5,0.1,0.6,0.2c0.2,0.2,0.2,0.4,0.2,0.6v16.6H74c0.2,0,0.4,0.1,0.6,0.2c0.2,0.2,0.3,0.4,0.3,0.6V758.9z"/>
</g>
<rect y="800" class="st3" width="100" height="100"/>
<path class="st0" d="M50,824.5c14.1,0,25.5,11.4,25.5,25.5S64.1,875.5,50,875.5S24.5,864.1,24.5,850"/>
<rect y="900" class="st3" width="100" height="100"/>
<rect y="1000" class="st3" width="100" height="100"/>
<polyline class="st2" points="57.1,837.2 47.8,824.5 60.5,815.2 "/>
<circle class="st2" cx="50" cy="950" r="25.5"/>
<path d="M50.8,975.5c-14.1,0-25.5-11.4-25.5-25.5s11.4-25.5,25.5-25.5V975.5z"/>
<circle class="st2" cx="50" cy="1050" r="18.1"/>
<line class="st2" x1="86.7" y1="1050" x2="78.3" y2="1050"/>
<line class="st2" x1="21.7" y1="1050" x2="13.3" y2="1050"/>
<line class="st2" x1="50" y1="1086.7" x2="50" y2="1078.3"/>
<line class="st2" x1="50" y1="1021.7" x2="50" y2="1013.3"/>
<line class="st2" x1="24.1" y1="1075.9" x2="30" y2="1070"/>
<line class="st2" x1="70" y1="1030" x2="75.9" y2="1024.1"/>
<line class="st2" x1="24.1" y1="1024.1" x2="30" y2="1030"/>
<line class="st2" x1="70" y1="1070" x2="75.9" y2="1075.9"/>
</svg>
